<svg xmlns="http://www.w3.org/2000/svg" version="1.1" xmlns:xlink="http://www.w3.org/1999/xlink" xmlns:svgjs="http://svgjs.dev/svgjs" width="1000" height="623" viewBox="0 0 1000 623"><g transform="matrix(1,0,0,1,-0.6060606060606233,0.2522267206477409)"><svg xmlns="http://www.w3.org/2000/svg" version="1.1" xmlns:xlink="http://www.w3.org/1999/xlink" xmlns:svgjs="http://svgjs.com/svgjs" viewBox="0 0 396 247" data-background-color="#ffffff" preserveAspectRatio="xMidYMid meet" height="623" width="1000"><defs></defs><g id="tight-bounds" transform="matrix(1,0,0,1,0.2400000000000091,-0.09999999999999432)"><svg viewBox="0 0 395.52 247.2" height="247.2" width="395.52"><g><svg xmlns="http://www.w3.org/2000/svg" version="1.1" xmlns:xlink="http://www.w3.org/1999/xlink" xmlns:svgjs="http://svgjs.com/svgjs"></svg></g><g><svg viewBox="0 0 395.52 247.2" height="247.2" width="395.52"><g transform="matrix(1,0,0,1,75.54432,89.21786330139216)"><svg viewBox="0 0 244.43135999999998 68.76427339721569" height="68.76427339721569" width="244.43135999999998"><g><svg viewBox="0 0 244.43135999999998 68.76427339721569" height="68.76427339721569" width="244.43135999999998"><g><svg viewBox="0 0 244.43135999999998 68.76427339721569" height="68.76427339721569" width="244.43135999999998"><g><svg viewBox="0 0 244.43135999999998 68.76427339721569" height="68.76427339721569" width="244.43135999999998"><g><svg viewBox="0 0 244.43135999999998 68.76427339721569" height="68.76427339721569" width="244.43135999999998"><g transform="matrix(1,0,0,1,0,0)"><svg width="244.43135999999998" viewBox="1.03 -37.5 135.02 37.99" height="68.76427339721569" data-palette-color="#252532"><path d="M18.82-35.55L18.82 0 11.84 0 11.84-35.55 18.82-35.55ZM29.76-35.55L29.76-29.91 1.03-29.91 1.03-35.55 29.76-35.55ZM29.1-12.94L29.1-13.45Q29.1-17.31 30.56-20.35 32.03-23.39 34.8-25.15 37.57-26.9 41.5-26.9L41.5-26.9Q45.51-26.9 48.29-25.15 51.07-23.39 52.52-20.35 53.98-17.31 53.98-13.45L53.98-13.45 53.98-12.94Q53.98-9.11 52.52-6.05 51.07-3 48.3-1.26 45.53 0.49 41.55 0.49L41.55 0.49Q37.6 0.49 34.81-1.26 32.03-3 30.56-6.05 29.1-9.11 29.1-12.94L29.1-12.94ZM35.84-13.45L35.84-12.94Q35.84-10.74 36.41-8.91 36.98-7.08 38.24-5.99 39.5-4.91 41.55-4.91L41.55-4.91Q43.6-4.91 44.86-5.99 46.12-7.08 46.69-8.91 47.26-10.74 47.26-12.94L47.26-12.94 47.26-13.45Q47.26-15.63 46.69-17.46 46.12-19.29 44.86-20.4 43.6-21.51 41.5-21.51L41.5-21.51Q39.48-21.51 38.22-20.4 36.96-19.29 36.4-17.46 35.84-15.63 35.84-13.45L35.84-13.45ZM74.29-5.71L74.29-37.5 81.03-37.5 81.03 0 74.95 0 74.29-5.71ZM57.44-12.89L57.44-13.4Q57.44-17.43 58.66-20.47 59.88-23.51 62.2-25.21 64.52-26.9 67.82-26.9L67.82-26.9Q70.97-26.9 73.08-25.2 75.19-23.49 76.41-20.48 77.63-17.48 78.07-13.57L78.07-13.57 78.07-12.57Q77.63-8.84 76.41-5.88 75.19-2.93 73.07-1.22 70.94 0.49 67.77 0.49L67.77 0.49Q64.52 0.49 62.2-1.26 59.88-3 58.66-6.03 57.44-9.06 57.44-12.89L57.44-12.89ZM64.16-13.4L64.16-12.89Q64.16-10.69 64.67-8.9 65.18-7.1 66.35-6.04 67.52-4.98 69.45-4.98L69.45-4.98Q71.33-4.98 72.53-5.81 73.73-6.64 74.38-8.09 75.04-9.55 75.21-11.4L75.21-11.4 75.21-14.75Q75.12-16.26 74.73-17.49 74.34-18.73 73.64-19.6 72.94-20.48 71.92-20.96 70.89-21.44 69.5-21.44L69.5-21.44Q67.57-21.44 66.39-20.37 65.2-19.31 64.68-17.49 64.16-15.67 64.16-13.4L64.16-13.4ZM85.61-12.94L85.61-13.45Q85.61-17.31 87.08-20.35 88.54-23.39 91.31-25.15 94.08-26.9 98.01-26.9L98.01-26.9Q102.02-26.9 104.8-25.15 107.59-23.39 109.04-20.35 110.49-17.31 110.49-13.45L110.49-13.45 110.49-12.94Q110.49-9.11 109.04-6.05 107.59-3 104.81-1.26 102.04 0.49 98.06 0.49L98.06 0.49Q94.11 0.49 91.33-1.26 88.54-3 87.08-6.05 85.61-9.11 85.61-12.94L85.61-12.94ZM92.35-13.45L92.35-12.94Q92.35-10.74 92.92-8.91 93.5-7.08 94.76-5.99 96.01-4.91 98.06-4.91L98.06-4.91Q100.11-4.91 101.37-5.99 102.63-7.08 103.2-8.91 103.78-10.74 103.78-12.94L103.78-12.94 103.78-13.45Q103.78-15.63 103.2-17.46 102.63-19.29 101.37-20.4 100.11-21.51 98.01-21.51L98.01-21.51Q95.99-21.51 94.73-20.4 93.47-19.29 92.91-17.46 92.35-15.63 92.35-13.45L92.35-13.45ZM129.48-7.28L129.48-7.28Q129.48-8.08 129.05-8.69 128.63-9.3 127.46-9.83 126.28-10.35 123.99-10.82L123.99-10.82Q121.25-11.4 119.13-12.39 117.01-13.38 115.8-14.94 114.59-16.5 114.59-18.77L114.59-18.77Q114.59-20.95 115.83-22.8 117.08-24.66 119.42-25.78 121.77-26.9 125.01-26.9L125.01-26.9Q128.41-26.9 130.86-25.81 133.32-24.71 134.62-22.79 135.93-20.87 135.93-18.43L135.93-18.43 129.21-18.43Q129.21-19.97 128.18-21.02 127.14-22.07 124.99-22.07L124.99-22.07Q123.74-22.07 122.85-21.67 121.96-21.26 121.51-20.59 121.06-19.92 121.06-19.07L121.06-19.07Q121.06-18.29 121.54-17.69 122.01-17.09 123.11-16.64 124.21-16.19 126.14-15.8L126.14-15.8Q129.07-15.21 131.29-14.27 133.51-13.33 134.78-11.72 136.05-10.11 136.05-7.57L136.05-7.57Q136.05-5.25 134.69-3.42 133.34-1.59 130.87-0.55 128.41 0.49 125.06 0.49L125.06 0.49Q121.38 0.49 118.85-0.83 116.32-2.15 115.02-4.19 113.71-6.23 113.71-8.4L113.71-8.4 120.13-8.4Q120.23-6.93 120.94-6.05 121.65-5.18 122.77-4.76 123.89-4.35 125.19-4.35L125.19-4.35Q126.6-4.35 127.55-4.72 128.51-5.1 128.99-5.76 129.48-6.42 129.48-7.28Z" opacity="1" transform="matrix(1,0,0,1,0,0)" fill="#252532" class="undefined-text-0" data-fill-palette-color="primary" id="text-0"></path></svg></g></svg></g></svg></g></svg></g></svg></g></svg></g><path d="M190.622 83.218L190.622 26.076 385.67 26.076 385.67 221.124 190.622 221.124 190.622 163.982 196.823 163.982 196.823 214.923 379.469 214.923 379.469 32.277 196.823 32.277 196.823 83.218Z" fill="#252532" stroke="transparent" data-fill-palette-color="primary"></path></svg></g></svg><rect width="395.52" height="247.2" fill="transparent" stroke="transparent"></rect></g></svg></g></svg>